<?xml version="1.0" encoding="UTF-8"?><svg xmlns="http://www.w3.org/2000/svg" xmlns:xlink="http://www.w3.org/1999/xlink" width="768" zoomAndPan="magnify" viewBox="0 0 768 767.999994" height="767.999994" preserveAspectRatio="xMidYMid meet" version="1.0"><defs><clipPath id="clip-0"><path d="M 270 230.398438 L 504.441406 230.398438 L 504.441406 537.898438 L 270 537.898438 Z M 270 230.398438 " clip-rule="nonzero"/></clipPath><clipPath id="clip-1"><path d="M 268 230.398438 L 504.441406 230.398438 L 504.441406 537.898438 L 268 537.898438 Z M 268 230.398438 " clip-rule="nonzero"/></clipPath></defs><g clip-path="url(#clip-0)"><path fill="rgb(0%, 0%, 0%)" d="M 284.265625 230.535156 L 295.859375 267.675781 C 306.109375 292.71875 309.441406 312.089844 295.269531 327.574219 L 278.21875 355.449219 C 263.851562 375.367188 270.167969 392.351562 285.78125 408.023438 C 304.527344 423.085938 327.539062 428.03125 339.460938 451.113281 C 342.5 457 353.511719 469.933594 357.582031 476.546875 C 370.753906 495.929688 377.710938 506.421875 396.15625 519.425781 C 399.105469 521.199219 401.617188 523.4375 404.449219 525.304688 C 407.199219 527.109375 409.652344 529.320312 412.890625 530.445312 C 413.972656 530.789062 415.375 530.976562 416.269531 530.957031 L 419.226562 530.957031 C 420.945312 531.378906 422.953125 531.019531 424.246094 532.265625 C 427.316406 533.933594 430.195312 536.328125 433.707031 537.074219 C 437.40625 537.621094 441.195312 537.351562 444.929688 537.351562 C 446.652344 537.351562 447.515625 535.683594 448.476562 534.523438 C 448.980469 531.574219 450.554688 533.875 450.546875 533.960938 C 450.980469 534.515625 451.65625 535 452.320312 535.371094 C 453.957031 536.296875 455.765625 536.960938 457.636719 537.351562 C 460.757812 537.769531 463.941406 537.585938 467.089844 537.351562 C 468.375 537.0625 469.5625 536.394531 470.636719 535.65625 C 471.085938 535.34375 471.347656 534.902344 471.820312 534.523438 C 471.902344 534.484375 473.664062 534.523438 473.890625 534.523438 L 478.320312 534.523438 C 480.183594 534.460938 482.117188 534.527344 483.859375 533.914062 C 484.332031 533.75 484.757812 533.453125 485.113281 533.113281 C 485.835938 532.046875 486.882812 531.285156 487.976562 530.585938 C 488.5625 530.273438 489.261719 530.183594 489.84375 529.859375 C 491.097656 529.160156 492.160156 528.203125 493.257812 527.28125 C 494.070312 526.566406 494.46875 526.035156 495.453125 524.914062 C 495.738281 524.40625 495.777344 523.792969 495.804688 523.21875 C 495.855469 522.175781 495.882812 521.402344 495.453125 520.105469 C 494.890625 519.519531 494.296875 518.949219 493.679688 518.410156 C 493.289062 518.027344 492.878906 517.667969 492.503906 517.28125 C 491.949219 516.703125 492.007812 515.617188 492.222656 514.914062 C 492.730469 514.042969 493.90625 513.59375 494.863281 513.320312 C 494.863281 513.320312 496.292969 513.300781 496.933594 513.039062 C 497.96875 512.621094 498.765625 511.785156 499.59375 511.058594 C 500.476562 510.289062 501.308594 509.457031 502.039062 508.550781 C 502.683594 507.746094 503.542969 506.796875 503.726562 505.96875 L 504.316406 502.292969 L 504.316406 499.75 C 504.320312 498.226562 504.015625 496.738281 503.726562 495.230469 C 503.359375 493.964844 502.808594 492.730469 502.253906 491.550781 C 502.222656 491.078125 501.863281 490.601562 501.472656 490.28125 C 501.085938 489.867188 500.90625 489.875 500.769531 489.855469 C 500.5625 489.828125 500.171875 489.851562 499.882812 489.855469 L 494.097656 489.855469 L 491.019531 489.570312 L 490.136719 489.570312 C 489.367188 489.367188 489.015625 489.054688 488.070312 488.894531 C 487.070312 488.597656 486.800781 488.585938 486 488.445312 C 485.050781 488.078125 484.40625 487.414062 483.421875 486.933594 C 482.042969 486.328125 482.0625 486.433594 481.351562 486.308594 C 480.546875 486.171875 479.6875 486.191406 478.910156 486.179688 C 477.570312 485.6875 476.515625 484.761719 475.25 484.183594 L 467.128906 479.429688 C 463.796875 477.367188 459.585938 475.464844 455.882812 474.023438 L 453.394531 473.292969 L 452.667969 473.082031 C 447.425781 459.394531 444.320312 449.863281 441.960938 434.214844 C 439.839844 420.152344 433.957031 400.742188 427.90625 388.246094 C 418.488281 367.175781 416.65625 341.679688 410.859375 309.949219 C 407.625 286.265625 404.613281 257.09375 402.203125 230.539062 L 284.269531 230.539062 Z M 453.394531 473.292969 Z M 453.394531 473.292969 " fill-opacity="1" fill-rule="nonzero"/></g><g clip-path="url(#clip-1)"><path stroke-linecap="butt" transform="matrix(0.244988, 0, 0, 0.245088, 243.674669, 176.977218)" fill="none" stroke-linejoin="miter" d="M 165.685285 218.525309 L 213.008974 370.065247 C 254.847707 472.244732 268.448484 551.282022 210.601333 614.460852 L 141.002983 728.195496 C 82.3586 809.464127 108.141082 878.763206 171.871805 942.707068 C 248.390128 1004.164577 342.319998 1024.342276 390.983037 1118.520809 C 403.387966 1142.539602 448.335904 1195.31082 464.950218 1222.294109 C 518.715541 1301.379213 547.112944 1344.189086 622.40353 1397.24719 C 634.441733 1404.483111 644.694136 1413.615671 656.253999 1421.234107 C 667.479025 1428.597533 677.492258 1437.618526 690.710364 1442.208714 C 695.127029 1443.611271 700.851155 1444.376302 704.502477 1444.296612 L 716.572569 1444.296612 C 723.58821 1446.017932 731.783755 1444.551622 737.061431 1449.635892 C 749.593917 1456.441482 761.345116 1466.211569 775.679347 1469.255756 C 790.77892 1471.487097 806.24522 1470.387364 821.488295 1470.387364 C 828.519881 1470.387364 832.043646 1463.581774 835.966027 1458.848143 C 838.022886 1446.814839 844.448576 1456.20241 844.416686 1456.55305 C 846.186541 1458.816267 848.944964 1460.792598 851.655552 1462.306722 C 858.336356 1466.084064 865.718724 1468.793549 873.356206 1470.387364 C 886.095973 1472.092747 899.090854 1471.343653 911.942233 1470.387364 C 917.18802 1469.207941 922.03519 1466.482517 926.419966 1463.470207 C 928.253599 1462.195155 929.32189 1460.394144 931.251191 1458.848143 C 931.586029 1458.688762 938.777061 1458.848143 939.70185 1458.848143 L 957.783071 1458.848143 C 965.388664 1458.593133 973.28126 1458.864081 980.392569 1456.361792 C 982.321871 1455.692389 984.059836 1454.48109 985.510799 1453.094471 C 988.460557 1448.743356 992.73372 1445.635416 997.198219 1442.782487 C 999.589915 1441.507435 1002.444005 1441.140858 1004.819757 1439.817991 C 1009.937986 1436.965062 1014.274928 1433.060215 1018.755371 1429.298812 C 1022.071856 1426.38213 1023.698209 1424.214542 1027.716259 1419.640292 C 1028.880217 1417.568333 1029.039664 1415.066043 1029.151276 1412.723135 C 1029.358556 1408.467649 1029.470169 1405.311895 1027.716259 1400.020429 C 1025.420231 1397.629706 1022.996645 1395.302736 1020.477392 1393.103271 C 1018.882928 1391.541332 1017.208741 1390.075022 1015.678056 1388.497146 C 1013.413917 1386.138299 1013.653087 1381.707493 1014.530042 1378.838626 C 1016.602845 1375.284419 1021.402181 1373.451531 1025.308618 1372.335861 C 1025.308618 1372.335861 1031.144356 1372.25617 1033.759277 1371.188314 C 1037.984606 1369.482932 1041.237313 1366.072167 1044.617576 1363.107671 C 1048.221065 1359.967856 1051.617273 1356.573029 1054.59892 1352.875379 C 1057.229786 1349.592119 1060.737606 1345.719149 1061.487004 1342.340261 L 1063.894645 1327.342461 L 1063.894645 1316.966725 C 1063.91059 1310.750846 1062.666908 1304.67841 1061.487004 1298.526284 C 1059.988208 1293.362323 1057.740014 1288.325868 1055.475875 1283.512546 C 1055.348318 1281.58403 1053.881412 1279.639576 1052.286948 1278.332647 C 1050.708428 1276.643203 1049.974975 1276.67508 1049.416913 1276.595389 C 1048.571847 1276.483822 1046.977383 1276.579451 1045.797479 1276.595389 L 1022.183469 1276.595389 L 1009.619093 1275.431904 L 1006.015605 1275.431904 C 1002.874511 1274.60312 1001.439493 1273.328068 997.58089 1272.674604 C 993.499063 1271.463304 992.398883 1271.41549 989.130232 1270.841716 C 985.255684 1269.34353 982.624819 1266.634044 978.60677 1264.673652 C 972.978312 1262.203239 973.058035 1262.633569 970.156111 1262.123548 C 966.871515 1261.565713 963.363695 1261.645403 960.190712 1261.597589 C 954.7217 1259.589382 950.416648 1255.81204 945.250585 1253.453194 L 912.10168 1234.056464 C 898.500902 1225.641121 881.312581 1217.879241 866.197063 1211.998064 L 856.040328 1209.017629 L 853.074625 1208.156969 C 831.67692 1152.309689 819.000931 1113.420601 809.370369 1049.572369 C 800.71243 992.195026 776.699804 912.998354 752.001557 862.01221 C 713.559032 776.041825 706.080997 672.013514 682.419152 542.547915 C 669.216991 445.914907 656.923674 326.888797 647.085831 218.541247 L 165.701229 218.541247 Z M 856.040328 1209.017629 Z M 856.040328 1209.017629 " stroke="rgb(0%, 0%, 0%)" stroke-width="1" stroke-opacity="1" stroke-miterlimit="4"/></g></svg>