<?xml version="1.0" encoding="UTF-8"?><svg xmlns="http://www.w3.org/2000/svg" xmlns:xlink="http://www.w3.org/1999/xlink" width="768" zoomAndPan="magnify" viewBox="0 0 768 767.999994" height="767.999994" preserveAspectRatio="xMidYMid meet" version="1.0"><defs><clipPath id="clip-0"><path d="M 230.398438 458 L 536 458 L 536 525.070312 L 230.398438 525.070312 Z M 230.398438 458 " clip-rule="nonzero"/></clipPath><clipPath id="clip-1"><path d="M 230.398438 257 L 537.898438 257 L 537.898438 405 L 230.398438 405 Z M 230.398438 257 " clip-rule="nonzero"/></clipPath><clipPath id="clip-2"><path d="M 357 243.070312 L 373 243.070312 L 373 258 L 357 258 Z M 357 243.070312 " clip-rule="nonzero"/></clipPath></defs><g clip-path="url(#clip-0)"><path fill="rgb(0%, 0%, 0%)" d="M 421.839844 498.757812 C 420.019531 495.074219 415.570312 491.628906 409.800781 489.902344 C 401.472656 487.414062 393.464844 489.425781 391.550781 494.390625 C 391.582031 493.910156 391.664062 493.433594 391.804688 492.964844 C 392.554688 490.457031 394.738281 488.625 397.699219 487.648438 C 396.058594 479.882812 395.039062 470.773438 394.648438 460.351562 C 392.289062 460.277344 390.105469 459.777344 388.285156 458.960938 C 385.882812 460.601562 382.078125 461.660156 377.796875 461.660156 C 375.773438 461.660156 373.855469 461.421875 372.140625 461 C 371.800781 469.441406 371.050781 477.019531 369.878906 483.699219 C 374.894531 484.429688 378.753906 486.898438 379.878906 490.652344 C 380.042969 491.203125 380.140625 491.761719 380.179688 492.324219 C 377.929688 486.503906 368.539062 484.140625 358.769531 487.0625 C 352 489.082031 346.78125 493.128906 344.648438 497.449219 C 344.503906 497.746094 344.367188 498.042969 344.25 498.34375 C 344.867188 498.730469 345.433594 499.160156 345.933594 499.625 C 342.675781 498.132812 338.332031 497.515625 333.703125 498.136719 C 326.769531 499.066406 321.191406 502.492188 319.234375 506.558594 C 321.027344 507.402344 322.378906 508.601562 323.085938 510.082031 C 320.136719 507.699219 313.714844 507.007812 306.753906 508.640625 C 300.761719 510.042969 295.902344 512.804688 293.648438 515.742188 C 293.980469 514.074219 294.992188 512.410156 296.53125 510.910156 C 295.238281 510.945312 293.875 511.066406 292.476562 511.28125 C 287.375 512.066406 283.125 513.90625 281.136719 515.949219 C 279.523438 515.175781 276.738281 514.914062 273.65625 515.390625 C 269.140625 516.085938 265.691406 518.09375 265.785156 519.929688 C 244.476562 523.839844 230.972656 525.074219 230.972656 525.074219 L 535.847656 525.074219 C 535.847656 525.074219 524.148438 524.003906 505.34375 520.703125 C 505.476562 520.507812 505.570312 520.300781 505.601562 520.074219 C 505.890625 518.203125 502.367188 516.101562 497.734375 515.390625 C 494.65625 514.914062 491.867188 515.175781 490.253906 515.949219 C 488.265625 513.90625 484.015625 512.066406 478.917969 511.28125 C 477.515625 511.066406 476.152344 510.945312 474.859375 510.910156 C 476.398438 512.410156 477.410156 514.074219 477.742188 515.742188 C 475.492188 512.804688 470.628906 510.042969 464.640625 508.640625 C 457.675781 507.007812 451.253906 507.699219 448.304688 510.082031 C 449.011719 508.601562 450.363281 507.402344 452.160156 506.558594 C 450.199219 502.492188 444.621094 499.066406 437.691406 498.136719 C 433.058594 497.515625 428.714844 498.132812 425.457031 499.625 C 426.828125 498.351562 428.667969 497.351562 430.804688 496.714844 C 429.820312 494.769531 427.910156 493.113281 425.425781 492.308594 C 422.894531 491.488281 420.324219 491.738281 418.375 492.785156 C 420.253906 494.617188 421.484375 496.691406 421.839844 498.757812 Z M 428.738281 514.53125 C 427.976562 509.414062 421.789062 504.511719 413.5625 502.941406 C 408.78125 502.027344 404.226562 502.417969 400.738281 503.78125 C 404.058594 501.1875 409.4375 500.050781 415.132812 501.136719 C 423.628906 502.757812 429.648438 508.71875 428.738281 514.53125 Z M 366.613281 497.148438 C 372.019531 496.117188 377.128906 497.195312 380.28125 499.660156 C 376.96875 498.363281 372.644531 497.992188 368.101562 498.859375 C 360.289062 500.351562 354.414062 505.007812 353.6875 509.867188 C 352.828125 504.347656 358.542969 498.6875 366.613281 497.148438 Z M 366.613281 497.148438 " fill-opacity="1" fill-rule="nonzero"/></g><path fill="rgb(0%, 0%, 0%)" d="M 397.132812 438.269531 C 398.03125 438.339844 398.964844 438.378906 399.925781 438.378906 C 402.148438 438.378906 404.238281 438.175781 406.066406 437.820312 C 406.378906 437.839844 406.695312 437.859375 407 437.882812 C 408.480469 438.945312 410.804688 439.636719 413.433594 439.636719 C 415.050781 439.636719 416.554688 439.371094 417.820312 438.921875 C 418.835938 439.050781 419.800781 439.183594 420.714844 439.316406 C 421.855469 439.699219 423.179688 439.929688 424.601562 439.960938 C 425.734375 440.167969 426.75 440.382812 427.65625 440.59375 C 426.796875 440.410156 425.894531 440.304688 424.960938 440.304688 C 422.167969 440.304688 419.644531 441.183594 417.820312 442.605469 C 416.265625 441.839844 414.421875 441.390625 412.441406 441.390625 C 409.554688 441.390625 406.957031 442.335938 405.121094 443.847656 C 407.269531 445.234375 408.578125 447.089844 408.578125 449.132812 C 408.578125 449.246094 408.574219 449.355469 408.566406 449.46875 C 407.789062 445.609375 402.304688 442.617188 395.648438 442.617188 C 392.59375 442.617188 389.785156 443.25 387.566406 444.304688 C 387.816406 444.707031 387.960938 445.140625 387.960938 445.59375 C 387.960938 445.789062 387.925781 445.980469 387.878906 446.167969 C 387.382812 444.324219 384.507812 442.902344 381.027344 442.902344 C 378.195312 442.902344 375.761719 443.84375 374.6875 445.183594 C 374.730469 444.9375 374.816406 444.699219 374.941406 444.46875 C 373.007812 443.785156 370.753906 443.394531 368.347656 443.394531 C 364.53125 443.394531 361.09375 444.378906 358.714844 445.945312 C 359.640625 444.746094 361.023438 443.742188 362.710938 443.03125 C 361.007812 442.003906 358.875 441.390625 356.550781 441.390625 C 354.566406 441.390625 352.726562 441.839844 351.167969 442.605469 C 350.15625 441.816406 348.921875 441.199219 347.546875 440.804688 C 348.050781 440.351562 348.453125 439.839844 348.730469 439.285156 C 349.097656 439.230469 349.46875 439.179688 349.847656 439.125 C 351.066406 439.554688 352.480469 439.800781 353.996094 439.800781 C 356.542969 439.800781 358.816406 439.109375 360.316406 438.023438 C 361.234375 437.953125 362.183594 437.882812 363.15625 437.816406 C 364.988281 438.175781 367.082031 438.378906 369.304688 438.378906 C 369.433594 438.378906 369.558594 438.375 369.683594 438.375 C 369.574219 435.246094 369.429688 432.089844 369.246094 428.929688 C 364.851562 428.9375 360.976562 429.738281 358.636719 430.957031 C 357.316406 430.414062 355.71875 430.09375 353.996094 430.09375 C 350.511719 430.09375 347.546875 431.390625 346.371094 433.210938 C 345.074219 432.460938 343.425781 432.011719 341.628906 432.011719 C 337.738281 432.011719 334.535156 434.117188 334.113281 436.828125 C 333.675781 436.773438 333.226562 436.734375 332.765625 436.734375 C 328.109375 436.734375 324.335938 439.660156 324.335938 443.265625 C 324.335938 446.726562 327.816406 449.550781 332.214844 449.769531 C 332.195312 449.558594 332.175781 449.347656 332.175781 449.132812 C 332.175781 446.121094 334.328125 443.507812 337.492188 442.179688 C 335.339844 443.609375 333.96875 445.726562 333.96875 448.09375 C 333.96875 452.394531 338.476562 455.882812 344.03125 455.882812 C 345.511719 455.882812 346.910156 455.628906 348.175781 455.1875 C 346.773438 453.847656 345.929688 452.144531 345.929688 450.285156 C 345.929688 449.085938 346.289062 447.953125 346.914062 446.9375 C 346.640625 447.644531 346.488281 448.398438 346.488281 449.179688 C 346.488281 453.480469 350.992188 456.96875 356.550781 456.96875 C 356.90625 456.96875 357.261719 456.953125 357.609375 456.925781 C 356.308594 455.683594 355.550781 454.191406 355.546875 452.582031 C 356.589844 456.011719 361.375 458.65625 367.28125 458.945312 C 366.390625 458.332031 365.695312 457.640625 365.238281 456.890625 C 367.597656 458.882812 371.90625 460.210938 376.835938 460.210938 C 384.292969 460.210938 390.339844 457.164062 390.339844 453.402344 C 390.339844 453.148438 390.3125 452.902344 390.257812 452.660156 C 390.707031 453.34375 390.957031 454.082031 390.957031 454.847656 C 390.957031 455.757812 390.609375 456.625 389.980469 457.417969 C 391.695312 457.917969 393.617188 458.195312 395.648438 458.195312 C 400.597656 458.195312 404.902344 456.539062 407.105469 454.105469 C 406.960938 454.570312 406.746094 455.015625 406.480469 455.445312 C 408.152344 456.398438 410.207031 456.96875 412.441406 456.96875 C 417.324219 456.96875 421.394531 454.273438 422.308594 450.699219 C 422.308594 450.726562 422.3125 450.753906 422.3125 450.785156 C 422.3125 452.386719 421.6875 453.875 420.617188 455.113281 C 421.933594 455.601562 423.402344 455.882812 424.957031 455.882812 C 430.515625 455.882812 435.019531 452.394531 435.019531 448.09375 C 435.019531 445.722656 433.648438 443.605469 431.496094 442.179688 C 434.660156 443.507812 436.816406 446.121094 436.816406 449.132812 C 436.816406 449.347656 436.792969 449.558594 436.773438 449.769531 C 441.171875 449.550781 444.65625 446.726562 444.65625 443.261719 C 444.65625 439.65625 440.878906 436.734375 436.222656 436.734375 C 435.824219 436.734375 435.429688 436.765625 435.042969 436.804688 C 434.449219 436.503906 433.761719 436.207031 432.96875 435.921875 C 432.988281 435.792969 433.003906 435.660156 433.003906 435.527344 C 433.003906 433.078125 429.382812 431.09375 424.914062 431.09375 C 422.816406 431.09375 420.910156 431.535156 419.472656 432.253906 C 417.992188 431.339844 415.835938 430.757812 413.429688 430.757812 C 412.476562 430.757812 411.566406 430.855469 410.71875 431.019531 C 408.382812 429.757812 404.421875 428.929688 399.921875 428.929688 C 399.117188 428.929688 398.328125 428.957031 397.5625 429.007812 C 397.386719 432.109375 397.242188 435.199219 397.132812 438.269531 Z M 428.429688 440.78125 C 428.429688 440.785156 428.425781 440.785156 428.425781 440.789062 C 428.359375 440.769531 428.296875 440.75 428.230469 440.730469 C 428.296875 440.75 428.363281 440.765625 428.429688 440.78125 Z M 428.429688 440.78125 " fill-opacity="1" fill-rule="nonzero"/><g clip-path="url(#clip-1)"><path fill="rgb(0%, 0%, 0%)" d="M 258.765625 364.445312 C 268.261719 364.445312 276.65625 361.527344 281.789062 357.054688 C 278.144531 362.863281 269.703125 367.175781 259.492188 368.085938 C 264.457031 374.539062 273.554688 378.859375 283.960938 378.859375 C 284.324219 378.859375 284.683594 378.851562 285.039062 378.839844 C 287.09375 387.417969 298.984375 394 313.347656 394 C 313.445312 394 313.542969 393.992188 313.640625 393.992188 C 316.523438 398.371094 323.082031 401.429688 330.714844 401.429688 C 336.570312 401.429688 341.796875 399.625 345.214844 396.808594 C 349.289062 398.199219 353.96875 398.988281 358.945312 398.988281 C 361.585938 398.988281 364.140625 398.761719 366.570312 398.34375 C 365.566406 389.53125 364.425781 381.054688 363.269531 373.269531 C 361.710938 372.773438 359.964844 372.484375 358.117188 372.484375 C 354.4375 372.484375 351.152344 373.585938 348.976562 375.316406 C 346.902344 373.382812 343.957031 371.8125 340.515625 371 C 333.003906 369.230469 325.980469 371.75 324.828125 376.632812 C 324.695312 377.195312 324.652344 377.761719 324.679688 378.332031 C 323.972656 376.992188 323.714844 375.574219 324.039062 374.199219 C 324.472656 372.367188 325.851562 370.917969 327.796875 369.992188 C 325.667969 366.527344 320.078125 364.054688 313.515625 364.054688 C 312.691406 364.054688 311.878906 364.097656 311.089844 364.171875 C 310.09375 363.335938 308.863281 362.636719 307.453125 362.109375 C 309.085938 361.753906 310.847656 361.5625 312.683594 361.5625 C 313.125 361.5625 313.554688 361.574219 313.984375 361.597656 C 314.042969 361.292969 314.070312 360.984375 314.070312 360.675781 C 314.070312 358.699219 312.902344 356.875 310.925781 355.40625 C 317.441406 354.589844 322.839844 351.679688 325.394531 348.027344 C 322.847656 346.453125 321.183594 344.289062 320.898438 341.765625 C 320.53125 338.542969 322.480469 335.390625 325.871094 332.992188 C 323.847656 335.0625 322.78125 337.480469 323.058594 339.9375 C 323.742188 345.933594 332.164062 349.898438 341.875 348.796875 C 346.28125 348.296875 350.191406 346.835938 353.085938 344.832031 C 351.492188 343.464844 350.347656 341.878906 349.789062 340.164062 C 353.398438 343.683594 359.972656 346.039062 367.492188 346.039062 C 378.160156 346.039062 386.9375 341.292969 388.015625 335.210938 C 388.304688 336.039062 388.460938 336.894531 388.460938 337.777344 C 388.460938 338.746094 388.269531 339.6875 387.921875 340.59375 C 390.945312 343.941406 396.734375 346.203125 403.382812 346.203125 C 412.96875 346.203125 420.773438 341.496094 421.0625 335.617188 C 421.289062 336.316406 421.410156 337.035156 421.410156 337.773438 C 421.410156 340.199219 420.128906 342.433594 417.96875 344.246094 C 420.683594 346.070312 424.199219 347.449219 428.152344 348.066406 C 434.59375 349.074219 440.554688 347.804688 444.085938 345.078125 C 444.847656 350.179688 451.085938 354.945312 459.324219 356.398438 C 459.242188 356.761719 459.1875 357.132812 459.1875 357.515625 C 459.1875 358.4375 459.449219 359.320312 459.902344 360.136719 C 458.972656 360.160156 458.019531 360.226562 457.050781 360.339844 C 452.433594 360.882812 448.40625 362.378906 445.75 364.3125 C 449.789062 364.945312 452.792969 366.894531 453.417969 369.722656 C 453.464844 369.9375 453.492188 370.152344 453.511719 370.367188 C 450.621094 366.558594 443.746094 364.824219 436.40625 366.445312 C 430.316406 367.789062 425.488281 371.097656 423.441406 374.851562 C 424.054688 375.707031 424.46875 376.660156 424.640625 377.695312 C 425.121094 380.625 423.550781 383.566406 420.707031 385.796875 C 422.285156 383.84375 423.042969 381.636719 422.683594 379.441406 C 421.777344 373.910156 414.121094 370.5625 405.585938 371.960938 C 404.9375 372.066406 404.300781 372.199219 403.679688 372.355469 C 402.292969 381.609375 400.921875 391.871094 399.777344 402.535156 C 399.835938 402.535156 399.894531 402.535156 399.953125 402.535156 C 404.929688 402.535156 409.609375 401.746094 413.6875 400.355469 C 417.101562 403.171875 422.328125 404.976562 428.1875 404.976562 C 435.820312 404.976562 442.375 401.917969 445.257812 397.542969 C 445.355469 397.542969 445.453125 397.546875 445.550781 397.546875 C 459.917969 397.546875 471.808594 390.964844 473.859375 382.386719 C 474.21875 382.398438 474.578125 382.410156 474.9375 382.410156 C 486.945312 382.410156 497.207031 376.65625 501.386719 368.523438 C 493.714844 366.394531 487.847656 362.203125 485.597656 357.074219 C 490.605469 362.035156 499.457031 365.332031 509.550781 365.332031 C 525.175781 365.332031 537.84375 357.4375 537.84375 347.699219 C 537.84375 346.082031 537.488281 344.519531 536.835938 343.035156 C 534.605469 337.957031 528.824219 333.796875 521.257812 331.648438 C 519.914062 337.242188 515.101562 341.953125 508.511719 344.53125 C 514.261719 341.195312 517.929688 336.152344 517.929688 330.511719 C 517.929688 320.464844 506.316406 312.324219 491.996094 312.324219 C 488.851562 312.324219 485.835938 312.71875 483.046875 313.4375 C 487.011719 311.441406 491.800781 310.273438 496.960938 310.273438 C 498.269531 310.273438 499.554688 310.347656 500.808594 310.492188 C 501.085938 309.363281 501.230469 308.195312 501.230469 307 C 501.230469 297.261719 491.621094 289.367188 479.761719 289.367188 C 474.085938 289.367188 468.929688 291.179688 465.089844 294.136719 C 467.839844 290.773438 471.964844 288.230469 476.804688 287.050781 C 476.148438 285.582031 475.222656 284.183594 474.054688 282.882812 C 468.820312 277.027344 458.808594 273.066406 447.3125 273.066406 C 435.816406 273.066406 425.804688 277.027344 420.570312 282.882812 C 423.773438 277.277344 430.804688 272.9375 439.53125 271.292969 C 434.511719 267.191406 427.042969 264.582031 418.6875 264.582031 C 408.335938 264.582031 399.324219 268.585938 394.683594 274.488281 C 396.804688 269.199219 402.121094 264.839844 409.101562 262.488281 C 404.167969 259.121094 397.414062 257.042969 389.953125 257.042969 C 381.246094 257.042969 373.496094 259.875 368.488281 264.285156 C 363.867188 262.777344 358.578125 261.921875 352.953125 261.921875 C 339.542969 261.921875 328.027344 266.792969 323.015625 273.757812 C 319.855469 270.367188 315.351562 268.242188 310.351562 268.242188 C 300.792969 268.242188 293.042969 275.988281 293.042969 285.542969 C 293.042969 285.839844 293.050781 286.136719 293.066406 286.433594 C 286.085938 286.488281 280.039062 289.445312 276.976562 293.761719 C 282.011719 294.746094 285.953125 298.753906 286.847656 303.8125 C 291.445312 301.273438 297.023438 299.777344 303.042969 299.777344 C 306.039062 299.777344 308.929688 300.152344 311.644531 300.835938 C 314.789062 290.195312 325.9375 282.324219 339.210938 282.324219 C 349.109375 282.324219 357.820312 286.703125 362.917969 293.34375 C 367.042969 291.769531 371.800781 290.863281 376.875 290.863281 C 391.128906 290.863281 402.933594 297.964844 405.007812 307.230469 C 400.078125 300.574219 389.191406 295.949219 376.542969 295.949219 C 364.707031 295.949219 354.410156 300 349.09375 305.972656 C 350.625 301.277344 354.679688 297.226562 360.246094 294.503906 C 355.046875 289.617188 347.597656 286.554688 339.320312 286.554688 C 324.203125 286.554688 311.84375 296.765625 310.925781 309.65625 C 310.816406 308.773438 310.753906 307.878906 310.753906 306.96875 C 310.753906 305.671875 310.871094 304.402344 311.09375 303.160156 C 308.9375 302.742188 306.6875 302.519531 304.375 302.519531 C 288.65625 302.519531 275.917969 312.675781 275.917969 325.207031 C 275.917969 327.5625 276.367188 329.835938 277.207031 331.972656 C 275.527344 329.082031 274.585938 325.863281 274.585938 322.464844 C 274.585938 315.589844 278.429688 309.433594 284.488281 305.273438 C 283.371094 299.527344 278.316406 295.191406 272.242188 295.191406 C 270.070312 295.191406 268.03125 295.746094 266.253906 296.71875 C 262.386719 298.839844 259.761719 302.945312 259.761719 307.664062 C 259.761719 308.273438 259.820312 308.867188 259.902344 309.453125 C 262.386719 308.835938 265.039062 308.496094 267.804688 308.496094 C 268.507812 308.496094 269.199219 308.523438 269.886719 308.566406 C 257.230469 309.347656 247.28125 317.160156 247.28125 326.6875 C 247.28125 336.214844 257.230469 344.023438 269.886719 344.804688 C 269.199219 344.847656 268.507812 344.875 267.808594 344.875 C 256.550781 344.875 247.0625 339.324219 244.09375 331.734375 C 238.820312 333.730469 234.6875 336.773438 232.414062 340.398438 C 231.167969 342.386719 230.472656 344.550781 230.472656 346.8125 C 230.472656 356.550781 243.140625 364.445312 258.765625 364.445312 Z M 468.117188 309.164062 C 468.117188 309.894531 468.039062 310.613281 467.90625 311.316406 C 466.257812 303.261719 454.839844 297.023438 440.992188 297.023438 C 434.726562 297.023438 428.960938 298.300781 424.371094 300.445312 C 428.574219 295.890625 435.972656 292.863281 444.402344 292.863281 C 457.5 292.863281 468.117188 300.160156 468.117188 309.164062 Z M 468.117188 309.164062 " fill-opacity="1" fill-rule="nonzero"/></g><path fill="rgb(0%, 0%, 0%)" d="M 288.277344 277.003906 C 288.277344 277.488281 288.230469 277.960938 288.136719 278.433594 C 288.042969 278.90625 287.902344 279.363281 287.71875 279.804688 C 287.535156 280.25 287.308594 280.671875 287.042969 281.070312 C 286.773438 281.472656 286.472656 281.839844 286.132812 282.179688 C 285.792969 282.519531 285.421875 282.824219 285.023438 283.089844 C 284.621094 283.359375 284.199219 283.582031 283.757812 283.765625 C 283.3125 283.953125 282.855469 284.089844 282.382812 284.183594 C 281.910156 284.277344 281.433594 284.324219 280.953125 284.324219 C 280.472656 284.324219 279.996094 284.277344 279.527344 284.183594 C 279.054688 284.089844 278.597656 283.953125 278.152344 283.765625 C 277.707031 283.582031 277.285156 283.359375 276.886719 283.089844 C 276.488281 282.824219 276.117188 282.519531 275.777344 282.179688 C 275.4375 281.839844 275.132812 281.472656 274.867188 281.070312 C 274.597656 280.671875 274.375 280.25 274.1875 279.804688 C 274.003906 279.363281 273.867188 278.90625 273.773438 278.433594 C 273.679688 277.960938 273.632812 277.488281 273.632812 277.003906 C 273.632812 276.523438 273.679688 276.050781 273.773438 275.578125 C 273.867188 275.105469 274.003906 274.648438 274.1875 274.203125 C 274.375 273.761719 274.597656 273.339844 274.867188 272.941406 C 275.132812 272.539062 275.4375 272.171875 275.777344 271.832031 C 276.117188 271.492188 276.488281 271.1875 276.886719 270.921875 C 277.285156 270.652344 277.707031 270.429688 278.152344 270.242188 C 278.597656 270.058594 279.054688 269.921875 279.527344 269.828125 C 279.996094 269.734375 280.472656 269.6875 280.953125 269.6875 C 281.433594 269.6875 281.910156 269.734375 282.382812 269.828125 C 282.855469 269.921875 283.3125 270.058594 283.757812 270.242188 C 284.199219 270.429688 284.621094 270.652344 285.023438 270.921875 C 285.421875 271.1875 285.792969 271.492188 286.132812 271.832031 C 286.472656 272.171875 286.773438 272.539062 287.042969 272.941406 C 287.308594 273.339844 287.535156 273.761719 287.71875 274.203125 C 287.902344 274.648438 288.042969 275.105469 288.136719 275.578125 C 288.230469 276.050781 288.277344 276.523438 288.277344 277.003906 Z M 288.277344 277.003906 " fill-opacity="1" fill-rule="nonzero"/><g clip-path="url(#clip-2)"><path fill="rgb(0%, 0%, 0%)" d="M 372.484375 250.390625 C 372.484375 250.871094 372.4375 251.347656 372.34375 251.820312 C 372.25 252.289062 372.109375 252.746094 371.925781 253.191406 C 371.742188 253.636719 371.515625 254.058594 371.25 254.457031 C 370.980469 254.855469 370.679688 255.226562 370.339844 255.566406 C 370 255.90625 369.628906 256.210938 369.230469 256.476562 C 368.828125 256.742188 368.40625 256.96875 367.960938 257.152344 C 367.519531 257.335938 367.0625 257.476562 366.589844 257.570312 C 366.117188 257.664062 365.640625 257.710938 365.160156 257.710938 C 364.679688 257.710938 364.203125 257.664062 363.730469 257.570312 C 363.261719 257.476562 362.804688 257.335938 362.359375 257.152344 C 361.914062 256.96875 361.492188 256.742188 361.09375 256.476562 C 360.691406 256.210938 360.324219 255.90625 359.984375 255.566406 C 359.644531 255.226562 359.339844 254.855469 359.074219 254.457031 C 358.804688 254.058594 358.578125 253.636719 358.394531 253.191406 C 358.210938 252.746094 358.074219 252.289062 357.980469 251.820312 C 357.886719 251.347656 357.839844 250.871094 357.839844 250.390625 C 357.839844 249.910156 357.886719 249.433594 357.980469 248.964844 C 358.074219 248.492188 358.210938 248.035156 358.394531 247.589844 C 358.578125 247.144531 358.804688 246.722656 359.074219 246.324219 C 359.339844 245.925781 359.644531 245.554688 359.984375 245.214844 C 360.324219 244.875 360.691406 244.574219 361.09375 244.304688 C 361.492188 244.039062 361.914062 243.8125 362.359375 243.628906 C 362.804688 243.445312 363.261719 243.304688 363.730469 243.210938 C 364.203125 243.117188 364.679688 243.070312 365.160156 243.070312 C 365.640625 243.070312 366.117188 243.117188 366.589844 243.210938 C 367.0625 243.304688 367.519531 243.445312 367.960938 243.628906 C 368.40625 243.8125 368.828125 244.039062 369.230469 244.304688 C 369.628906 244.574219 370 244.875 370.339844 245.214844 C 370.679688 245.554688 370.980469 245.925781 371.25 246.324219 C 371.515625 246.722656 371.742188 247.144531 371.925781 247.589844 C 372.109375 248.035156 372.25 248.492188 372.34375 248.964844 C 372.4375 249.433594 372.484375 249.910156 372.484375 250.390625 Z M 372.484375 250.390625 " fill-opacity="1" fill-rule="nonzero"/></g><path fill="rgb(0%, 0%, 0%)" d="M 252.996094 303.953125 C 252.996094 304.28125 252.964844 304.605469 252.898438 304.925781 C 252.835938 305.246094 252.742188 305.558594 252.617188 305.863281 C 252.488281 306.164062 252.335938 306.453125 252.152344 306.726562 C 251.972656 306.996094 251.765625 307.25 251.535156 307.480469 C 251.300781 307.714844 251.050781 307.917969 250.777344 308.101562 C 250.503906 308.285156 250.214844 308.4375 249.914062 308.5625 C 249.609375 308.6875 249.296875 308.78125 248.976562 308.847656 C 248.65625 308.910156 248.332031 308.941406 248.003906 308.941406 C 247.675781 308.941406 247.351562 308.910156 247.03125 308.847656 C 246.707031 308.78125 246.394531 308.6875 246.09375 308.5625 C 245.789062 308.4375 245.503906 308.285156 245.230469 308.101562 C 244.957031 307.917969 244.703125 307.714844 244.472656 307.480469 C 244.242188 307.25 244.035156 306.996094 243.851562 306.726562 C 243.671875 306.453125 243.515625 306.164062 243.390625 305.863281 C 243.265625 305.558594 243.171875 305.246094 243.105469 304.925781 C 243.042969 304.605469 243.011719 304.28125 243.011719 303.953125 C 243.011719 303.625 243.042969 303.300781 243.105469 302.980469 C 243.171875 302.65625 243.265625 302.347656 243.390625 302.042969 C 243.515625 301.742188 243.671875 301.453125 243.851562 301.179688 C 244.035156 300.910156 244.242188 300.65625 244.472656 300.425781 C 244.703125 300.191406 244.957031 299.984375 245.230469 299.804688 C 245.503906 299.621094 245.789062 299.46875 246.09375 299.34375 C 246.394531 299.21875 246.707031 299.121094 247.03125 299.058594 C 247.351562 298.996094 247.675781 298.964844 248.003906 298.964844 C 248.332031 298.964844 248.65625 298.996094 248.976562 299.058594 C 249.296875 299.121094 249.609375 299.21875 249.914062 299.34375 C 250.214844 299.46875 250.503906 299.621094 250.777344 299.804688 C 251.050781 299.984375 251.300781 300.191406 251.535156 300.425781 C 251.765625 300.65625 251.972656 300.910156 252.152344 301.179688 C 252.335938 301.453125 252.488281 301.742188 252.617188 302.042969 C 252.742188 302.347656 252.835938 302.65625 252.898438 302.980469 C 252.964844 303.300781 252.996094 303.625 252.996094 303.953125 Z M 252.996094 303.953125 " fill-opacity="1" fill-rule="nonzero"/><path fill="rgb(0%, 0%, 0%)" d="M 485.644531 278.78125 C 485.644531 279.050781 485.621094 279.316406 485.566406 279.582031 C 485.515625 279.84375 485.4375 280.101562 485.332031 280.351562 C 485.230469 280.597656 485.105469 280.835938 484.953125 281.058594 C 484.804688 281.285156 484.632812 281.492188 484.445312 281.679688 C 484.253906 281.871094 484.046875 282.042969 483.820312 282.191406 C 483.597656 282.339844 483.359375 282.46875 483.113281 282.570312 C 482.863281 282.671875 482.605469 282.75 482.34375 282.804688 C 482.078125 282.855469 481.8125 282.882812 481.542969 282.882812 C 481.273438 282.882812 481.003906 282.855469 480.742188 282.804688 C 480.476562 282.75 480.21875 282.671875 479.96875 282.570312 C 479.722656 282.46875 479.484375 282.339844 479.261719 282.191406 C 479.035156 282.042969 478.828125 281.871094 478.636719 281.679688 C 478.449219 281.492188 478.277344 281.285156 478.128906 281.058594 C 477.976562 280.835938 477.851562 280.597656 477.75 280.351562 C 477.644531 280.101562 477.566406 279.84375 477.515625 279.582031 C 477.460938 279.316406 477.4375 279.050781 477.4375 278.78125 C 477.4375 278.511719 477.460938 278.242188 477.515625 277.980469 C 477.566406 277.714844 477.644531 277.457031 477.75 277.210938 C 477.851562 276.960938 477.976562 276.722656 478.128906 276.5 C 478.277344 276.277344 478.449219 276.070312 478.636719 275.878906 C 478.828125 275.6875 479.035156 275.515625 479.261719 275.367188 C 479.484375 275.21875 479.722656 275.089844 479.96875 274.988281 C 480.21875 274.886719 480.476562 274.808594 480.742188 274.753906 C 481.003906 274.703125 481.273438 274.675781 481.542969 274.675781 C 481.8125 274.675781 482.078125 274.703125 482.34375 274.753906 C 482.605469 274.808594 482.863281 274.886719 483.113281 274.988281 C 483.359375 275.089844 483.597656 275.21875 483.820312 275.367188 C 484.046875 275.515625 484.253906 275.6875 484.445312 275.878906 C 484.632812 276.070312 484.804688 276.277344 484.953125 276.5 C 485.105469 276.722656 485.230469 276.960938 485.332031 277.210938 C 485.4375 277.457031 485.515625 277.714844 485.566406 277.980469 C 485.621094 278.242188 485.644531 278.511719 485.644531 278.78125 Z M 485.644531 278.78125 " fill-opacity="1" fill-rule="nonzero"/><path fill="rgb(0%, 0%, 0%)" d="M 441.324219 267.914062 C 441.695312 267.914062 442.054688 267.855469 442.390625 267.75 C 443.863281 267.296875 444.929688 265.925781 444.929688 264.308594 C 444.929688 262.316406 443.316406 260.703125 441.324219 260.703125 C 439.332031 260.703125 437.71875 262.320312 437.71875 264.308594 C 437.71875 264.394531 437.726562 264.476562 437.730469 264.5625 C 437.863281 266.433594 439.417969 267.914062 441.324219 267.914062 Z M 441.324219 267.914062 " fill-opacity="1" fill-rule="nonzero"/><path fill="rgb(0%, 0%, 0%)" d="M 446.925781 254.605469 C 446.925781 255.082031 446.835938 255.542969 446.652344 255.984375 C 446.46875 256.425781 446.207031 256.816406 445.871094 257.152344 C 445.53125 257.492188 445.140625 257.75 444.699219 257.933594 C 444.257812 258.117188 443.800781 258.207031 443.320312 258.207031 C 442.84375 258.207031 442.382812 258.117188 441.941406 257.933594 C 441.5 257.75 441.109375 257.492188 440.769531 257.152344 C 440.433594 256.816406 440.171875 256.425781 439.988281 255.984375 C 439.808594 255.542969 439.714844 255.082031 439.714844 254.605469 C 439.714844 254.125 439.808594 253.667969 439.988281 253.226562 C 440.171875 252.785156 440.433594 252.394531 440.769531 252.054688 C 441.109375 251.71875 441.5 251.457031 441.941406 251.273438 C 442.382812 251.09375 442.84375 251 443.320312 251 C 443.800781 251 444.257812 251.09375 444.699219 251.273438 C 445.140625 251.457031 445.53125 251.71875 445.871094 252.054688 C 446.207031 252.394531 446.46875 252.785156 446.652344 253.226562 C 446.835938 253.667969 446.925781 254.125 446.925781 254.605469 Z M 446.925781 254.605469 " fill-opacity="1" fill-rule="nonzero"/><path fill="rgb(0%, 0%, 0%)" d="M 436.167969 256.933594 C 436.167969 257.410156 436.074219 257.871094 435.890625 258.3125 C 435.710938 258.753906 435.449219 259.144531 435.109375 259.480469 C 434.773438 259.820312 434.382812 260.082031 433.941406 260.261719 C 433.5 260.445312 433.039062 260.539062 432.5625 260.539062 C 432.082031 260.539062 431.621094 260.445312 431.179688 260.261719 C 430.738281 260.082031 430.351562 259.820312 430.011719 259.480469 C 429.671875 259.144531 429.414062 258.753906 429.230469 258.3125 C 429.046875 257.871094 428.957031 257.410156 428.957031 256.933594 C 428.957031 256.457031 429.046875 255.996094 429.230469 255.554688 C 429.414062 255.113281 429.671875 254.722656 430.011719 254.386719 C 430.351562 254.046875 430.738281 253.785156 431.179688 253.605469 C 431.621094 253.421875 432.082031 253.328125 432.5625 253.328125 C 433.039062 253.328125 433.5 253.421875 433.941406 253.605469 C 434.382812 253.785156 434.773438 254.046875 435.109375 254.386719 C 435.449219 254.722656 435.710938 255.113281 435.890625 255.554688 C 436.074219 255.996094 436.167969 256.457031 436.167969 256.933594 Z M 436.167969 256.933594 " fill-opacity="1" fill-rule="nonzero"/><path fill="rgb(0%, 0%, 0%)" d="M 526.085938 310.328125 C 526.085938 310.691406 526.050781 311.046875 525.980469 311.402344 C 525.910156 311.753906 525.808594 312.097656 525.667969 312.429688 C 525.53125 312.761719 525.363281 313.078125 525.160156 313.378906 C 524.960938 313.679688 524.734375 313.957031 524.480469 314.210938 C 524.222656 314.464844 523.945312 314.695312 523.648438 314.894531 C 523.347656 315.09375 523.03125 315.261719 522.695312 315.402344 C 522.363281 315.539062 522.019531 315.644531 521.667969 315.714844 C 521.3125 315.785156 520.957031 315.820312 520.59375 315.820312 C 520.234375 315.820312 519.878906 315.785156 519.523438 315.714844 C 519.171875 315.644531 518.828125 315.539062 518.492188 315.402344 C 518.160156 315.261719 517.84375 315.09375 517.542969 314.894531 C 517.246094 314.695312 516.96875 314.464844 516.710938 314.210938 C 516.457031 313.957031 516.230469 313.679688 516.027344 313.378906 C 515.828125 313.078125 515.660156 312.761719 515.523438 312.429688 C 515.382812 312.097656 515.28125 311.753906 515.210938 311.402344 C 515.140625 311.046875 515.105469 310.691406 515.105469 310.328125 C 515.105469 309.96875 515.140625 309.613281 515.210938 309.257812 C 515.28125 308.90625 515.382812 308.5625 515.523438 308.230469 C 515.660156 307.894531 515.828125 307.578125 516.027344 307.28125 C 516.230469 306.980469 516.457031 306.703125 516.710938 306.449219 C 516.96875 306.191406 517.246094 305.964844 517.542969 305.765625 C 517.84375 305.566406 518.160156 305.394531 518.492188 305.257812 C 518.828125 305.121094 519.171875 305.015625 519.523438 304.945312 C 519.878906 304.875 520.234375 304.839844 520.59375 304.839844 C 520.957031 304.839844 521.3125 304.875 521.667969 304.945312 C 522.019531 305.015625 522.363281 305.121094 522.695312 305.257812 C 523.03125 305.394531 523.347656 305.566406 523.648438 305.765625 C 523.945312 305.964844 524.222656 306.191406 524.480469 306.449219 C 524.734375 306.703125 524.960938 306.980469 525.160156 307.28125 C 525.363281 307.578125 525.53125 307.894531 525.667969 308.230469 C 525.808594 308.5625 525.910156 308.90625 525.980469 309.257812 C 526.050781 309.613281 526.085938 309.96875 526.085938 310.328125 Z M 526.085938 310.328125 " fill-opacity="1" fill-rule="nonzero"/><path fill="rgb(0%, 0%, 0%)" d="M 282.453125 386.179688 C 282.453125 386.644531 282.363281 387.089844 282.1875 387.519531 C 282.011719 387.945312 281.757812 388.324219 281.429688 388.652344 C 281.101562 388.980469 280.722656 389.230469 280.296875 389.410156 C 279.867188 389.585938 279.421875 389.675781 278.960938 389.675781 C 278.496094 389.675781 278.050781 389.585938 277.621094 389.410156 C 277.195312 389.230469 276.816406 388.980469 276.488281 388.652344 C 276.160156 388.324219 275.90625 387.945312 275.730469 387.519531 C 275.554688 387.089844 275.464844 386.644531 275.464844 386.179688 C 275.464844 385.71875 275.554688 385.273438 275.730469 384.84375 C 275.90625 384.417969 276.160156 384.039062 276.488281 383.710938 C 276.816406 383.382812 277.195312 383.132812 277.621094 382.953125 C 278.050781 382.777344 278.496094 382.6875 278.960938 382.6875 C 279.421875 382.6875 279.867188 382.777344 280.296875 382.953125 C 280.722656 383.132812 281.101562 383.382812 281.429688 383.710938 C 281.757812 384.039062 282.011719 384.417969 282.1875 384.84375 C 282.363281 385.273438 282.453125 385.71875 282.453125 386.179688 Z M 282.453125 386.179688 " fill-opacity="1" fill-rule="nonzero"/><path fill="rgb(0%, 0%, 0%)" d="M 482.375 388.621094 C 482.375 389.082031 482.285156 389.53125 482.109375 389.957031 C 481.933594 390.386719 481.679688 390.761719 481.351562 391.089844 C 481.023438 391.417969 480.644531 391.671875 480.21875 391.847656 C 479.789062 392.023438 479.34375 392.113281 478.878906 392.113281 C 478.417969 392.113281 477.972656 392.023438 477.542969 391.847656 C 477.113281 391.671875 476.738281 391.417969 476.410156 391.089844 C 476.082031 390.761719 475.828125 390.386719 475.652344 389.957031 C 475.472656 389.53125 475.386719 389.082031 475.386719 388.621094 C 475.386719 388.15625 475.472656 387.710938 475.652344 387.285156 C 475.828125 386.855469 476.082031 386.476562 476.410156 386.148438 C 476.738281 385.824219 477.113281 385.570312 477.542969 385.394531 C 477.972656 385.214844 478.417969 385.128906 478.878906 385.128906 C 479.34375 385.128906 479.789062 385.214844 480.21875 385.394531 C 480.644531 385.570312 481.023438 385.824219 481.351562 386.148438 C 481.679688 386.476562 481.933594 386.855469 482.109375 387.285156 C 482.285156 387.710938 482.375 388.15625 482.375 388.621094 Z M 482.375 388.621094 " fill-opacity="1" fill-rule="nonzero"/><path fill="rgb(0%, 0%, 0%)" d="M 508.558594 374.871094 C 508.558594 375.332031 508.46875 375.777344 508.292969 376.207031 C 508.113281 376.636719 507.863281 377.011719 507.535156 377.339844 C 507.207031 377.667969 506.828125 377.921875 506.402344 378.097656 C 505.972656 378.273438 505.527344 378.363281 505.0625 378.363281 C 504.597656 378.363281 504.152344 378.273438 503.726562 378.097656 C 503.296875 377.921875 502.917969 377.667969 502.589844 377.339844 C 502.265625 377.011719 502.011719 376.636719 501.835938 376.207031 C 501.65625 375.777344 501.566406 375.332031 501.566406 374.871094 C 501.566406 374.40625 501.65625 373.960938 501.835938 373.53125 C 502.011719 373.105469 502.265625 372.726562 502.589844 372.398438 C 502.917969 372.070312 503.296875 371.820312 503.726562 371.640625 C 504.152344 371.464844 504.597656 371.375 505.0625 371.375 C 505.527344 371.375 505.972656 371.464844 506.402344 371.640625 C 506.828125 371.820312 507.207031 372.070312 507.535156 372.398438 C 507.863281 372.726562 508.113281 373.105469 508.292969 373.53125 C 508.46875 373.960938 508.558594 374.40625 508.558594 374.871094 Z M 508.558594 374.871094 " fill-opacity="1" fill-rule="nonzero"/><path fill="rgb(0%, 0%, 0%)" d="M 257.492188 373.871094 C 257.492188 374.335938 257.402344 374.78125 257.226562 375.207031 C 257.046875 375.636719 256.796875 376.015625 256.46875 376.339844 C 256.140625 376.667969 255.761719 376.921875 255.332031 377.097656 C 254.90625 377.277344 254.460938 377.363281 253.996094 377.363281 C 253.53125 377.363281 253.085938 377.277344 252.660156 377.097656 C 252.230469 376.921875 251.851562 376.667969 251.523438 376.339844 C 251.195312 376.015625 250.945312 375.636719 250.765625 375.207031 C 250.589844 374.78125 250.5 374.335938 250.5 373.871094 C 250.5 373.410156 250.589844 372.960938 250.765625 372.535156 C 250.945312 372.105469 251.195312 371.730469 251.523438 371.402344 C 251.851562 371.074219 252.230469 370.820312 252.660156 370.644531 C 253.085938 370.46875 253.53125 370.378906 253.996094 370.378906 C 254.460938 370.378906 254.90625 370.46875 255.332031 370.644531 C 255.761719 370.820312 256.140625 371.074219 256.46875 371.402344 C 256.796875 371.730469 257.046875 372.105469 257.226562 372.535156 C 257.402344 372.960938 257.492188 373.410156 257.492188 373.871094 Z M 257.492188 373.871094 " fill-opacity="1" fill-rule="nonzero"/><path fill="rgb(0%, 0%, 0%)" d="M 398.386719 393.265625 C 400.488281 375.90625 403.082031 360.074219 405.132812 348.660156 C 404.664062 348.683594 404.191406 348.699219 403.714844 348.699219 C 400.957031 348.699219 398.34375 348.308594 396.019531 347.613281 C 394.96875 355.273438 393.105469 369.984375 391.632812 387.6875 L 389.84375 387.539062 C 391.34375 369.53125 393.246094 354.601562 394.289062 347.019531 C 391.167969 345.804688 388.707031 344.003906 387.308594 341.871094 C 384.597656 346.53125 377.394531 349.863281 368.933594 349.863281 C 366.394531 349.863281 363.96875 349.558594 361.746094 349.015625 C 363.785156 360.398438 366.347656 376.085938 368.425781 393.265625 C 370.636719 411.519531 371.910156 427.894531 372.253906 442.339844 C 373.484375 442.640625 374.617188 443.074219 375.597656 443.628906 C 376.761719 442.515625 378.878906 441.765625 381.304688 441.765625 C 383.558594 441.765625 385.550781 442.414062 386.753906 443.398438 C 388.847656 442.246094 391.570312 441.5 394.582031 441.367188 C 394.960938 427.15625 396.226562 411.109375 398.386719 393.265625 Z M 398.386719 393.265625 " fill-opacity="1" fill-rule="nonzero"/><path fill="rgb(0%, 0%, 0%)" d="M 352.347656 359.398438 C 352.347656 359.769531 352.3125 360.140625 352.238281 360.503906 C 352.167969 360.867188 352.058594 361.222656 351.917969 361.5625 C 351.777344 361.90625 351.601562 362.234375 351.394531 362.542969 C 351.1875 362.851562 350.953125 363.136719 350.691406 363.398438 C 350.429688 363.660156 350.144531 363.894531 349.832031 364.101562 C 349.523438 364.308594 349.199219 364.484375 348.855469 364.625 C 348.511719 364.765625 348.160156 364.875 347.792969 364.945312 C 347.429688 365.019531 347.0625 365.054688 346.691406 365.054688 C 346.320312 365.054688 345.949219 365.019531 345.585938 364.945312 C 345.222656 364.875 344.867188 364.765625 344.523438 364.625 C 344.183594 364.484375 343.855469 364.308594 343.546875 364.101562 C 343.238281 363.894531 342.953125 363.660156 342.691406 363.398438 C 342.425781 363.136719 342.191406 362.851562 341.984375 362.542969 C 341.78125 362.234375 341.605469 361.90625 341.464844 361.5625 C 341.320312 361.222656 341.214844 360.867188 341.140625 360.503906 C 341.070312 360.140625 341.03125 359.769531 341.03125 359.398438 C 341.03125 359.027344 341.070312 358.660156 341.140625 358.296875 C 341.214844 357.933594 341.320312 357.578125 341.464844 357.234375 C 341.605469 356.894531 341.78125 356.566406 341.984375 356.257812 C 342.191406 355.949219 342.425781 355.664062 342.691406 355.402344 C 342.953125 355.136719 343.238281 354.902344 343.546875 354.699219 C 343.855469 354.492188 344.183594 354.316406 344.523438 354.175781 C 344.867188 354.03125 345.222656 353.925781 345.585938 353.851562 C 345.949219 353.78125 346.320312 353.746094 346.691406 353.746094 C 347.0625 353.746094 347.429688 353.78125 347.792969 353.851562 C 348.160156 353.925781 348.511719 354.03125 348.855469 354.175781 C 349.199219 354.316406 349.523438 354.492188 349.832031 354.699219 C 350.144531 354.902344 350.429688 355.136719 350.691406 355.402344 C 350.953125 355.664062 351.1875 355.949219 351.394531 356.257812 C 351.601562 356.566406 351.777344 356.894531 351.917969 357.234375 C 352.058594 357.578125 352.167969 357.933594 352.238281 358.296875 C 352.3125 358.660156 352.347656 359.027344 352.347656 359.398438 Z M 352.347656 359.398438 " fill-opacity="1" fill-rule="nonzero"/><path fill="rgb(0%, 0%, 0%)" d="M 334.042969 357.902344 C 334.042969 358.410156 333.945312 358.898438 333.75 359.367188 C 333.558594 359.835938 333.28125 360.25 332.921875 360.609375 C 332.5625 360.96875 332.148438 361.242188 331.679688 361.4375 C 331.210938 361.632812 330.722656 361.730469 330.214844 361.730469 C 329.707031 361.730469 329.21875 361.632812 328.75 361.4375 C 328.28125 361.242188 327.867188 360.96875 327.507812 360.609375 C 327.148438 360.25 326.875 359.835938 326.679688 359.367188 C 326.484375 358.898438 326.386719 358.410156 326.386719 357.902344 C 326.386719 357.394531 326.484375 356.90625 326.679688 356.4375 C 326.875 355.96875 327.148438 355.554688 327.507812 355.199219 C 327.867188 354.839844 328.28125 354.5625 328.75 354.367188 C 329.21875 354.171875 329.707031 354.078125 330.214844 354.078125 C 330.722656 354.078125 331.210938 354.171875 331.679688 354.367188 C 332.148438 354.5625 332.5625 354.839844 332.921875 355.199219 C 333.28125 355.554688 333.558594 355.96875 333.75 356.4375 C 333.945312 356.90625 334.042969 357.394531 334.042969 357.902344 Z M 334.042969 357.902344 " fill-opacity="1" fill-rule="nonzero"/><path fill="rgb(0%, 0%, 0%)" d="M 360.335938 427.101562 C 360.335938 427.328125 360.292969 427.546875 360.207031 427.757812 C 360.117188 427.96875 359.992188 428.15625 359.832031 428.316406 C 359.671875 428.476562 359.484375 428.601562 359.273438 428.6875 C 359.0625 428.777344 358.84375 428.820312 358.617188 428.820312 C 358.390625 428.820312 358.167969 428.777344 357.957031 428.6875 C 357.75 428.601562 357.5625 428.476562 357.402344 428.316406 C 357.238281 428.15625 357.117188 427.96875 357.027344 427.757812 C 356.941406 427.546875 356.898438 427.328125 356.898438 427.101562 C 356.898438 426.871094 356.941406 426.652344 357.027344 426.441406 C 357.117188 426.234375 357.238281 426.046875 357.402344 425.886719 C 357.5625 425.722656 357.75 425.601562 357.957031 425.511719 C 358.167969 425.425781 358.390625 425.382812 358.617188 425.382812 C 358.84375 425.382812 359.0625 425.425781 359.273438 425.511719 C 359.484375 425.601562 359.671875 425.722656 359.832031 425.886719 C 359.992188 426.046875 360.117188 426.234375 360.207031 426.441406 C 360.292969 426.652344 360.335938 426.871094 360.335938 427.101562 Z M 360.335938 427.101562 " fill-opacity="1" fill-rule="nonzero"/><path fill="rgb(0%, 0%, 0%)" d="M 438.273438 432.644531 C 438.273438 432.875 438.230469 433.09375 438.144531 433.304688 C 438.054688 433.515625 437.933594 433.699219 437.769531 433.859375 C 437.609375 434.023438 437.425781 434.148438 437.214844 434.234375 C 437.003906 434.320312 436.78125 434.363281 436.554688 434.363281 C 436.328125 434.363281 436.109375 434.320312 435.898438 434.234375 C 435.6875 434.148438 435.5 434.023438 435.339844 433.863281 C 435.179688 433.699219 435.054688 433.515625 434.964844 433.304688 C 434.878906 433.09375 434.835938 432.875 434.835938 432.644531 C 434.835938 432.417969 434.878906 432.199219 434.964844 431.988281 C 435.054688 431.777344 435.179688 431.589844 435.339844 431.429688 C 435.5 431.269531 435.6875 431.144531 435.898438 431.058594 C 436.109375 430.96875 436.328125 430.925781 436.554688 430.925781 C 436.78125 430.925781 437.003906 430.96875 437.214844 431.058594 C 437.425781 431.144531 437.609375 431.269531 437.769531 431.429688 C 437.933594 431.589844 438.054688 431.777344 438.144531 431.988281 C 438.230469 432.199219 438.273438 432.417969 438.273438 432.644531 Z M 438.273438 432.644531 " fill-opacity="1" fill-rule="nonzero"/><path fill="rgb(0%, 0%, 0%)" d="M 410.984375 427.101562 C 410.984375 427.328125 410.9375 427.546875 410.851562 427.757812 C 410.765625 427.96875 410.640625 428.15625 410.480469 428.316406 C 410.316406 428.476562 410.132812 428.601562 409.921875 428.6875 C 409.710938 428.777344 409.492188 428.820312 409.261719 428.820312 C 409.035156 428.820312 408.816406 428.777344 408.605469 428.6875 C 408.394531 428.601562 408.207031 428.476562 408.046875 428.316406 C 407.886719 428.15625 407.761719 427.96875 407.675781 427.757812 C 407.585938 427.546875 407.542969 427.328125 407.542969 427.101562 C 407.542969 426.871094 407.585938 426.652344 407.675781 426.441406 C 407.761719 426.234375 407.886719 426.046875 408.046875 425.886719 C 408.207031 425.722656 408.394531 425.601562 408.605469 425.511719 C 408.816406 425.425781 409.035156 425.382812 409.261719 425.382812 C 409.492188 425.382812 409.710938 425.425781 409.921875 425.511719 C 410.132812 425.601562 410.316406 425.722656 410.480469 425.886719 C 410.640625 426.046875 410.765625 426.234375 410.851562 426.441406 C 410.9375 426.652344 410.984375 426.871094 410.984375 427.101562 Z M 410.984375 427.101562 " fill-opacity="1" fill-rule="nonzero"/><path fill="rgb(0%, 0%, 0%)" d="M 347.023438 428.988281 C 347.023438 429.214844 346.980469 429.433594 346.890625 429.644531 C 346.804688 429.855469 346.679688 430.039062 346.519531 430.203125 C 346.359375 430.363281 346.171875 430.488281 345.960938 430.574219 C 345.75 430.660156 345.53125 430.707031 345.304688 430.707031 C 345.074219 430.707031 344.855469 430.660156 344.644531 430.574219 C 344.433594 430.488281 344.25 430.363281 344.085938 430.203125 C 343.925781 430.039062 343.800781 429.855469 343.714844 429.644531 C 343.628906 429.433594 343.582031 429.214844 343.582031 428.988281 C 343.582031 428.757812 343.628906 428.539062 343.714844 428.328125 C 343.800781 428.117188 343.925781 427.933594 344.085938 427.769531 C 344.25 427.609375 344.433594 427.484375 344.644531 427.398438 C 344.855469 427.3125 345.074219 427.269531 345.304688 427.269531 C 345.53125 427.269531 345.75 427.3125 345.960938 427.398438 C 346.171875 427.484375 346.359375 427.609375 346.519531 427.769531 C 346.679688 427.933594 346.804688 428.117188 346.890625 428.328125 C 346.980469 428.539062 347.023438 428.757812 347.023438 428.988281 Z M 347.023438 428.988281 " fill-opacity="1" fill-rule="nonzero"/><path fill="rgb(0%, 0%, 0%)" d="M 352.347656 461.699219 C 352.347656 462.074219 352.277344 462.4375 352.132812 462.78125 C 351.988281 463.128906 351.785156 463.433594 351.519531 463.699219 C 351.253906 463.964844 350.949219 464.167969 350.601562 464.3125 C 350.253906 464.457031 349.894531 464.527344 349.519531 464.527344 C 349.144531 464.527344 348.785156 464.457031 348.4375 464.3125 C 348.089844 464.167969 347.785156 463.964844 347.519531 463.699219 C 347.253906 463.433594 347.050781 463.128906 346.90625 462.78125 C 346.761719 462.4375 346.691406 462.074219 346.691406 461.699219 C 346.691406 461.324219 346.761719 460.964844 346.90625 460.617188 C 347.050781 460.273438 347.253906 459.964844 347.519531 459.699219 C 347.785156 459.4375 348.089844 459.230469 348.4375 459.085938 C 348.785156 458.945312 349.144531 458.871094 349.519531 458.871094 C 349.894531 458.871094 350.253906 458.945312 350.601562 459.085938 C 350.949219 459.230469 351.253906 459.4375 351.519531 459.699219 C 351.785156 459.964844 351.988281 460.273438 352.132812 460.617188 C 352.277344 460.964844 352.347656 461.324219 352.347656 461.699219 Z M 352.347656 461.699219 " fill-opacity="1" fill-rule="nonzero"/><path fill="rgb(0%, 0%, 0%)" d="M 331.15625 455.269531 C 331.15625 455.539062 331.105469 455.800781 331 456.054688 C 330.898438 456.304688 330.75 456.527344 330.558594 456.71875 C 330.363281 456.910156 330.140625 457.058594 329.890625 457.164062 C 329.640625 457.269531 329.378906 457.320312 329.105469 457.320312 C 328.832031 457.320312 328.570312 457.269531 328.320312 457.164062 C 328.066406 457.058594 327.847656 456.910156 327.652344 456.71875 C 327.460938 456.527344 327.3125 456.304688 327.207031 456.054688 C 327.105469 455.800781 327.050781 455.539062 327.050781 455.269531 C 327.050781 454.996094 327.105469 454.734375 327.207031 454.484375 C 327.3125 454.230469 327.460938 454.007812 327.652344 453.816406 C 327.847656 453.625 328.066406 453.476562 328.320312 453.371094 C 328.570312 453.269531 328.832031 453.214844 329.105469 453.214844 C 329.378906 453.214844 329.640625 453.269531 329.890625 453.371094 C 330.140625 453.476562 330.363281 453.625 330.558594 453.816406 C 330.75 454.007812 330.898438 454.230469 331 454.484375 C 331.105469 454.734375 331.15625 454.996094 331.15625 455.269531 Z M 331.15625 455.269531 " fill-opacity="1" fill-rule="nonzero"/><path fill="rgb(0%, 0%, 0%)" d="M 421.078125 461.699219 C 421.078125 462.074219 421.007812 462.4375 420.863281 462.78125 C 420.71875 463.128906 420.515625 463.433594 420.25 463.699219 C 419.984375 463.964844 419.679688 464.167969 419.332031 464.3125 C 418.984375 464.457031 418.625 464.527344 418.25 464.527344 C 417.875 464.527344 417.511719 464.457031 417.167969 464.3125 C 416.820312 464.167969 416.515625 463.964844 416.25 463.699219 C 415.984375 463.433594 415.777344 463.128906 415.636719 462.78125 C 415.492188 462.4375 415.421875 462.074219 415.421875 461.699219 C 415.421875 461.324219 415.492188 460.964844 415.636719 460.617188 C 415.777344 460.273438 415.984375 459.964844 416.25 459.699219 C 416.515625 459.4375 416.820312 459.230469 417.167969 459.085938 C 417.511719 458.945312 417.875 458.871094 418.25 458.871094 C 418.625 458.871094 418.984375 458.945312 419.332031 459.085938 C 419.679688 459.230469 419.984375 459.4375 420.25 459.699219 C 420.515625 459.964844 420.71875 460.273438 420.863281 460.617188 C 421.007812 460.964844 421.078125 461.324219 421.078125 461.699219 Z M 421.078125 461.699219 " fill-opacity="1" fill-rule="nonzero"/><path fill="rgb(0%, 0%, 0%)" d="M 320.0625 442.488281 C 320.0625 442.761719 320.011719 443.027344 319.90625 443.285156 C 319.800781 443.539062 319.648438 443.761719 319.453125 443.957031 C 319.257812 444.152344 319.035156 444.304688 318.78125 444.410156 C 318.523438 444.515625 318.257812 444.566406 317.984375 444.566406 C 317.707031 444.566406 317.441406 444.515625 317.1875 444.410156 C 316.933594 444.304688 316.707031 444.152344 316.511719 443.957031 C 316.316406 443.761719 316.167969 443.539062 316.0625 443.285156 C 315.957031 443.027344 315.902344 442.761719 315.902344 442.488281 C 315.902344 442.210938 315.957031 441.945312 316.0625 441.691406 C 316.167969 441.4375 316.316406 441.210938 316.511719 441.019531 C 316.707031 440.824219 316.933594 440.671875 317.1875 440.566406 C 317.441406 440.460938 317.707031 440.410156 317.984375 440.410156 C 318.257812 440.410156 318.523438 440.460938 318.78125 440.566406 C 319.035156 440.671875 319.257812 440.824219 319.453125 441.019531 C 319.648438 441.210938 319.800781 441.4375 319.90625 441.691406 C 320.011719 441.945312 320.0625 442.210938 320.0625 442.488281 Z M 320.0625 442.488281 " fill-opacity="1" fill-rule="nonzero"/><path fill="rgb(0%, 0%, 0%)" d="M 448.582031 448.121094 C 448.582031 448.398438 448.53125 448.667969 448.421875 448.925781 C 448.316406 449.183594 448.164062 449.410156 447.96875 449.605469 C 447.769531 449.804688 447.542969 449.957031 447.285156 450.0625 C 447.027344 450.167969 446.757812 450.222656 446.480469 450.222656 C 446.203125 450.222656 445.933594 450.167969 445.675781 450.0625 C 445.417969 449.957031 445.191406 449.804688 444.992188 449.605469 C 444.796875 449.410156 444.644531 449.183594 444.535156 448.925781 C 444.429688 448.667969 444.375 448.398438 444.378906 448.121094 C 444.375 447.839844 444.429688 447.574219 444.535156 447.316406 C 444.644531 447.058594 444.796875 446.832031 444.992188 446.632812 C 445.191406 446.4375 445.417969 446.285156 445.675781 446.175781 C 445.933594 446.070312 446.203125 446.019531 446.480469 446.019531 C 446.757812 446.019531 447.027344 446.070312 447.285156 446.175781 C 447.542969 446.285156 447.769531 446.4375 447.96875 446.632812 C 448.164062 446.832031 448.316406 447.058594 448.421875 447.316406 C 448.53125 447.574219 448.582031 447.839844 448.582031 448.121094 Z M 448.582031 448.121094 " fill-opacity="1" fill-rule="nonzero"/><path fill="rgb(0%, 0%, 0%)" d="M 454.359375 442.675781 C 454.359375 442.957031 454.304688 443.222656 454.199219 443.480469 C 454.089844 443.738281 453.941406 443.964844 453.742188 444.164062 C 453.546875 444.359375 453.316406 444.511719 453.058594 444.621094 C 452.800781 444.726562 452.535156 444.78125 452.253906 444.78125 C 451.976562 444.78125 451.707031 444.726562 451.449219 444.621094 C 451.191406 444.511719 450.964844 444.359375 450.769531 444.164062 C 450.570312 443.964844 450.417969 443.738281 450.3125 443.480469 C 450.203125 443.222656 450.152344 442.957031 450.152344 442.675781 C 450.152344 442.398438 450.203125 442.128906 450.3125 441.871094 C 450.417969 441.613281 450.570312 441.386719 450.769531 441.191406 C 450.964844 440.992188 451.191406 440.839844 451.449219 440.734375 C 451.707031 440.628906 451.976562 440.574219 452.253906 440.574219 C 452.535156 440.574219 452.800781 440.628906 453.058594 440.734375 C 453.316406 440.839844 453.546875 440.992188 453.742188 441.191406 C 453.941406 441.386719 454.089844 441.613281 454.199219 441.871094 C 454.304688 442.128906 454.359375 442.398438 454.359375 442.675781 Z M 454.359375 442.675781 " fill-opacity="1" fill-rule="nonzero"/><path fill="rgb(0%, 0%, 0%)" d="M 448.203125 436.75 C 448.203125 436.992188 448.15625 437.226562 448.066406 437.449219 C 447.972656 437.671875 447.839844 437.871094 447.667969 438.042969 C 447.496094 438.214844 447.296875 438.347656 447.074219 438.4375 C 446.851562 438.53125 446.617188 438.578125 446.375 438.578125 C 446.128906 438.578125 445.898438 438.53125 445.671875 438.4375 C 445.449219 438.347656 445.25 438.214844 445.078125 438.042969 C 444.90625 437.871094 444.773438 437.671875 444.683594 437.449219 C 444.589844 437.226562 444.542969 436.992188 444.542969 436.75 C 444.542969 436.507812 444.589844 436.273438 444.683594 436.046875 C 444.773438 435.824219 444.90625 435.625 445.078125 435.453125 C 445.25 435.28125 445.449219 435.152344 445.671875 435.058594 C 445.898438 434.964844 446.128906 434.917969 446.375 434.917969 C 446.617188 434.917969 446.851562 434.964844 447.074219 435.058594 C 447.296875 435.152344 447.496094 435.28125 447.667969 435.453125 C 447.839844 435.625 447.972656 435.824219 448.066406 436.046875 C 448.15625 436.273438 448.203125 436.507812 448.203125 436.75 Z M 448.203125 436.75 " fill-opacity="1" fill-rule="nonzero"/><path fill="rgb(0%, 0%, 0%)" d="M 368.65625 465.527344 C 368.65625 465.9375 368.578125 466.332031 368.421875 466.714844 C 368.261719 467.09375 368.039062 467.429688 367.746094 467.722656 C 367.457031 468.011719 367.121094 468.238281 366.738281 468.394531 C 366.359375 468.550781 365.960938 468.628906 365.550781 468.628906 C 365.136719 468.628906 364.742188 468.550781 364.363281 468.394531 C 363.980469 468.238281 363.644531 468.011719 363.355469 467.722656 C 363.0625 467.429688 362.839844 467.09375 362.679688 466.714844 C 362.523438 466.332031 362.445312 465.9375 362.445312 465.527344 C 362.445312 465.113281 362.523438 464.71875 362.679688 464.335938 C 362.839844 463.957031 363.0625 463.621094 363.355469 463.332031 C 363.644531 463.039062 363.980469 462.816406 364.363281 462.65625 C 364.742188 462.5 365.136719 462.421875 365.550781 462.421875 C 365.960938 462.421875 366.359375 462.5 366.738281 462.65625 C 367.121094 462.816406 367.457031 463.039062 367.746094 463.332031 C 368.039062 463.621094 368.261719 463.957031 368.421875 464.335938 C 368.578125 464.71875 368.65625 465.113281 368.65625 465.527344 Z M 368.65625 465.527344 " fill-opacity="1" fill-rule="nonzero"/><path fill="rgb(0%, 0%, 0%)" d="M 405.710938 462.308594 C 405.710938 462.53125 405.671875 462.742188 405.585938 462.945312 C 405.5 463.148438 405.382812 463.328125 405.226562 463.484375 C 405.070312 463.640625 404.890625 463.761719 404.683594 463.847656 C 404.480469 463.929688 404.269531 463.972656 404.046875 463.972656 C 403.828125 463.972656 403.617188 463.929688 403.410156 463.847656 C 403.207031 463.761719 403.027344 463.640625 402.871094 463.484375 C 402.714844 463.328125 402.59375 463.148438 402.511719 462.945312 C 402.425781 462.742188 402.382812 462.53125 402.382812 462.308594 C 402.382812 462.089844 402.425781 461.875 402.511719 461.671875 C 402.59375 461.46875 402.714844 461.289062 402.871094 461.132812 C 403.027344 460.976562 403.207031 460.855469 403.410156 460.773438 C 403.617188 460.6875 403.828125 460.644531 404.046875 460.644531 C 404.269531 460.644531 404.480469 460.6875 404.683594 460.773438 C 404.890625 460.855469 405.070312 460.976562 405.226562 461.132812 C 405.382812 461.289062 405.5 461.46875 405.585938 461.671875 C 405.671875 461.875 405.710938 462.089844 405.710938 462.308594 Z M 405.710938 462.308594 " fill-opacity="1" fill-rule="nonzero"/><path fill="rgb(0%, 0%, 0%)" d="M 401.273438 465.082031 C 401.273438 465.304688 401.234375 465.515625 401.148438 465.71875 C 401.0625 465.921875 400.945312 466.101562 400.789062 466.257812 C 400.632812 466.414062 400.453125 466.535156 400.246094 466.621094 C 400.042969 466.703125 399.832031 466.746094 399.609375 466.746094 C 399.390625 466.746094 399.179688 466.703125 398.972656 466.621094 C 398.769531 466.535156 398.589844 466.414062 398.433594 466.257812 C 398.277344 466.101562 398.15625 465.921875 398.074219 465.71875 C 397.988281 465.515625 397.945312 465.304688 397.945312 465.082031 C 397.945312 464.863281 397.988281 464.648438 398.074219 464.445312 C 398.15625 464.242188 398.277344 464.0625 398.433594 463.90625 C 398.589844 463.75 398.769531 463.628906 398.972656 463.546875 C 399.179688 463.460938 399.390625 463.417969 399.609375 463.417969 C 399.832031 463.417969 400.042969 463.460938 400.246094 463.546875 C 400.453125 463.628906 400.632812 463.75 400.789062 463.90625 C 400.945312 464.0625 401.0625 464.242188 401.148438 464.445312 C 401.234375 464.648438 401.273438 464.863281 401.273438 465.082031 Z M 401.273438 465.082031 " fill-opacity="1" fill-rule="nonzero"/><path fill="rgb(0%, 0%, 0%)" d="M 405.492188 468.519531 C 405.492188 468.742188 405.449219 468.953125 405.363281 469.15625 C 405.28125 469.359375 405.160156 469.539062 405.003906 469.695312 C 404.847656 469.851562 404.667969 469.972656 404.464844 470.058594 C 404.257812 470.140625 404.046875 470.183594 403.828125 470.183594 C 403.605469 470.183594 403.394531 470.140625 403.191406 470.058594 C 402.984375 469.972656 402.804688 469.851562 402.648438 469.695312 C 402.492188 469.539062 402.375 469.359375 402.289062 469.15625 C 402.203125 468.953125 402.164062 468.742188 402.164062 468.519531 C 402.164062 468.300781 402.203125 468.085938 402.289062 467.882812 C 402.375 467.679688 402.492188 467.5 402.648438 467.34375 C 402.804688 467.1875 402.984375 467.066406 403.191406 466.984375 C 403.394531 466.898438 403.605469 466.855469 403.828125 466.855469 C 404.046875 466.855469 404.257812 466.898438 404.464844 466.984375 C 404.667969 467.066406 404.847656 467.1875 405.003906 467.34375 C 405.160156 467.5 405.28125 467.679688 405.363281 467.882812 C 405.449219 468.085938 405.492188 468.300781 405.492188 468.519531 Z M 405.492188 468.519531 " fill-opacity="1" fill-rule="nonzero"/><path fill="rgb(0%, 0%, 0%)" d="M 340.699219 491.140625 C 340.699219 491.628906 340.605469 492.09375 340.421875 492.542969 C 340.234375 492.992188 339.96875 493.386719 339.628906 493.730469 C 339.285156 494.074219 338.886719 494.335938 338.4375 494.523438 C 337.992188 494.707031 337.523438 494.800781 337.039062 494.800781 C 336.554688 494.800781 336.085938 494.707031 335.636719 494.523438 C 335.1875 494.335938 334.792969 494.074219 334.449219 493.730469 C 334.105469 493.386719 333.839844 492.992188 333.65625 492.542969 C 333.46875 492.09375 333.378906 491.628906 333.378906 491.140625 C 333.378906 490.65625 333.46875 490.191406 333.65625 489.742188 C 333.839844 489.292969 334.105469 488.898438 334.449219 488.554688 C 334.792969 488.210938 335.1875 487.945312 335.636719 487.761719 C 336.085938 487.574219 336.554688 487.484375 337.039062 487.484375 C 337.523438 487.484375 337.992188 487.574219 338.4375 487.761719 C 338.886719 487.945312 339.285156 488.210938 339.628906 488.554688 C 339.96875 488.898438 340.234375 489.292969 340.421875 489.742188 C 340.605469 490.191406 340.699219 490.65625 340.699219 491.140625 Z M 340.699219 491.140625 " fill-opacity="1" fill-rule="nonzero"/><path fill="rgb(0%, 0%, 0%)" d="M 295.433594 505.28125 C 295.433594 505.613281 295.371094 505.929688 295.242188 506.234375 C 295.117188 506.542969 294.9375 506.8125 294.703125 507.046875 C 294.46875 507.28125 294.199219 507.460938 293.894531 507.585938 C 293.585938 507.710938 293.269531 507.777344 292.9375 507.777344 C 292.605469 507.777344 292.289062 507.710938 291.980469 507.585938 C 291.675781 507.460938 291.40625 507.28125 291.171875 507.046875 C 290.9375 506.8125 290.757812 506.542969 290.632812 506.234375 C 290.503906 505.929688 290.441406 505.613281 290.441406 505.28125 C 290.441406 504.949219 290.503906 504.632812 290.632812 504.328125 C 290.757812 504.019531 290.9375 503.75 291.171875 503.515625 C 291.40625 503.28125 291.675781 503.101562 291.980469 502.976562 C 292.289062 502.847656 292.605469 502.785156 292.9375 502.785156 C 293.269531 502.785156 293.585938 502.847656 293.894531 502.976562 C 294.199219 503.101562 294.46875 503.28125 294.703125 503.515625 C 294.9375 503.75 295.117188 504.019531 295.242188 504.328125 C 295.371094 504.632812 295.433594 504.949219 295.433594 505.28125 Z M 295.433594 505.28125 " fill-opacity="1" fill-rule="nonzero"/><path fill="rgb(0%, 0%, 0%)" d="M 439.675781 491.140625 C 439.675781 491.628906 439.582031 492.09375 439.398438 492.542969 C 439.210938 492.992188 438.945312 493.386719 438.601562 493.730469 C 438.257812 494.074219 437.863281 494.335938 437.414062 494.523438 C 436.964844 494.707031 436.5 494.800781 436.015625 494.800781 C 435.527344 494.800781 435.0625 494.707031 434.613281 494.523438 C 434.164062 494.335938 433.769531 494.074219 433.425781 493.730469 C 433.082031 493.386719 432.816406 492.992188 432.632812 492.542969 C 432.445312 492.09375 432.351562 491.628906 432.351562 491.140625 C 432.351562 490.65625 432.445312 490.191406 432.632812 489.742188 C 432.816406 489.292969 433.082031 488.898438 433.425781 488.554688 C 433.769531 488.210938 434.164062 487.945312 434.613281 487.761719 C 435.0625 487.574219 435.527344 487.484375 436.015625 487.484375 C 436.5 487.484375 436.964844 487.574219 437.414062 487.761719 C 437.863281 487.945312 438.257812 488.210938 438.601562 488.554688 C 438.945312 488.898438 439.210938 489.292969 439.398438 489.742188 C 439.582031 490.191406 439.675781 490.65625 439.675781 491.140625 Z M 439.675781 491.140625 " fill-opacity="1" fill-rule="nonzero"/><path fill="rgb(0%, 0%, 0%)" d="M 480.945312 505.28125 C 480.945312 505.613281 480.882812 505.929688 480.757812 506.234375 C 480.628906 506.542969 480.449219 506.8125 480.214844 507.046875 C 479.980469 507.28125 479.710938 507.460938 479.40625 507.585938 C 479.101562 507.710938 478.78125 507.777344 478.449219 507.777344 C 478.121094 507.777344 477.800781 507.710938 477.496094 507.585938 C 477.1875 507.460938 476.917969 507.28125 476.683594 507.046875 C 476.453125 506.8125 476.269531 506.542969 476.144531 506.234375 C 476.019531 505.929688 475.953125 505.613281 475.953125 505.28125 C 475.953125 504.949219 476.019531 504.632812 476.144531 504.328125 C 476.269531 504.019531 476.453125 503.75 476.683594 503.515625 C 476.917969 503.28125 477.1875 503.101562 477.496094 502.976562 C 477.800781 502.847656 478.121094 502.785156 478.449219 502.785156 C 478.78125 502.785156 479.101562 502.847656 479.40625 502.976562 C 479.710938 503.101562 479.980469 503.28125 480.214844 503.515625 C 480.449219 503.75 480.628906 504.019531 480.757812 504.328125 C 480.882812 504.632812 480.945312 504.949219 480.945312 505.28125 Z M 480.945312 505.28125 " fill-opacity="1" fill-rule="nonzero"/></svg>