<?xml version="1.0" encoding="UTF-8"?><svg xmlns="http://www.w3.org/2000/svg" xmlns:xlink="http://www.w3.org/1999/xlink" width="768" zoomAndPan="magnify" viewBox="0 0 768 767.999994" height="767.999994" preserveAspectRatio="xMidYMid meet" version="1.0"><defs><clipPath id="clip-0"><path d="M 302 270 L 468 270 L 468 537.898438 L 302 537.898438 Z M 302 270 " clip-rule="nonzero"/></clipPath><clipPath id="clip-1"><path d="M 477 409 L 529.308594 409 L 529.308594 416 L 477 416 Z M 477 409 " clip-rule="nonzero"/></clipPath><clipPath id="clip-2"><path d="M 239.058594 413 L 292 413 L 292 420 L 239.058594 420 Z M 239.058594 413 " clip-rule="nonzero"/></clipPath></defs><g clip-path="url(#clip-0)"><path fill="rgb(0%, 0%, 0%)" d="M 325.316406 306.714844 C 325.316406 286.976562 350.179688 270.996094 380.730469 270.996094 L 389.171875 270.996094 C 419.707031 270.996094 444.566406 286.976562 444.566406 306.730469 L 444.566406 343.875 L 325.316406 343.875 Z M 467.445312 445.761719 C 467.445312 495.675781 431.566406 537.835938 389.105469 537.835938 L 382.390625 537.835938 C 339.050781 537.835938 302.457031 495.675781 302.457031 445.761719 L 302.457031 350.265625 L 383.335938 350.265625 C 382.835938 350.859375 382.585938 351.539062 382.582031 352.3125 L 382.582031 461.984375 C 382.582031 462.40625 382.664062 462.816406 382.828125 463.207031 C 382.988281 463.597656 383.21875 463.945312 383.519531 464.246094 C 383.820312 464.542969 384.164062 464.773438 384.558594 464.9375 C 384.949219 465.097656 385.355469 465.179688 385.78125 465.179688 C 386.207031 465.179688 386.613281 465.097656 387.003906 464.9375 C 387.394531 464.773438 387.742188 464.542969 388.042969 464.246094 C 388.34375 463.945312 388.574219 463.597656 388.734375 463.207031 C 388.898438 462.816406 388.980469 462.40625 388.980469 461.984375 L 388.980469 352.3125 C 388.976562 351.539062 388.726562 350.859375 388.226562 350.265625 L 467.445312 350.265625 Z M 467.445312 445.761719 " fill-opacity="1" fill-rule="nonzero"/></g><path fill="rgb(0%, 0%, 0%)" d="M 357.949219 261.535156 L 364.070312 259.679688 C 363.703125 258.480469 354.972656 230.335938 336.300781 234.636719 L 337.738281 240.867188 C 350.609375 237.878906 357.867188 261.292969 357.949219 261.535156 Z M 357.949219 261.535156 " fill-opacity="1" fill-rule="nonzero"/><path fill="rgb(0%, 0%, 0%)" d="M 434.382812 242.097656 L 435.820312 235.867188 C 417.148438 231.566406 408.417969 259.710938 408.050781 260.910156 L 414.175781 262.765625 C 414.253906 262.523438 421.511719 239.125 434.382812 242.097656 Z M 434.382812 242.097656 " fill-opacity="1" fill-rule="nonzero"/><path fill="rgb(0%, 0%, 0%)" d="M 516.875 366.984375 C 518.054688 365.597656 519.070312 364.097656 519.925781 362.488281 C 520.777344 360.878906 521.449219 359.195312 521.933594 357.441406 C 522.417969 355.683594 522.710938 353.898438 522.804688 352.078125 C 522.902344 350.261719 522.800781 348.453125 522.503906 346.65625 L 516.109375 347.488281 C 516.347656 348.839844 516.4375 350.199219 516.378906 351.570312 C 516.316406 352.941406 516.105469 354.289062 515.746094 355.617188 C 515.386719 356.941406 514.886719 358.210938 514.246094 359.425781 C 513.605469 360.636719 512.84375 361.769531 511.953125 362.8125 C 501.703125 374.832031 477.179688 375.597656 476.941406 375.597656 L 477.117188 381.992188 C 478.234375 382.039062 504.710938 381.144531 516.875 366.984375 Z M 516.875 366.984375 " fill-opacity="1" fill-rule="nonzero"/><path fill="rgb(0%, 0%, 0%)" d="M 477.117188 438.9375 L 476.941406 445.332031 C 477.179688 445.332031 501.703125 446.195312 511.953125 458.117188 C 512.839844 459.160156 513.605469 460.292969 514.246094 461.507812 C 514.886719 462.71875 515.386719 463.988281 515.746094 465.316406 C 516.105469 466.640625 516.316406 467.988281 516.375 469.359375 C 516.4375 470.730469 516.347656 472.089844 516.109375 473.441406 L 522.503906 474.273438 C 522.796875 472.484375 522.894531 470.683594 522.792969 468.875 C 522.695312 467.0625 522.402344 465.285156 521.917969 463.539062 C 521.429688 461.792969 520.761719 460.117188 519.914062 458.515625 C 519.0625 456.914062 518.050781 455.421875 516.875 454.039062 C 504.710938 439.863281 478.234375 438.96875 477.117188 438.9375 Z M 477.117188 438.9375 " fill-opacity="1" fill-rule="nonzero"/><g clip-path="url(#clip-1)"><path fill="rgb(0%, 0%, 0%)" d="M 477.035156 409.515625 L 529.136719 409.515625 L 529.136719 415.90625 L 477.035156 415.90625 Z M 477.035156 409.515625 " fill-opacity="1" fill-rule="nonzero"/></g><path fill="rgb(0%, 0%, 0%)" d="M 256.285156 366.761719 C 255.398438 365.714844 254.632812 364.582031 253.992188 363.367188 C 253.355469 362.148438 252.855469 360.878906 252.496094 359.554688 C 252.136719 358.226562 251.925781 356.878906 251.863281 355.503906 C 251.800781 354.132812 251.890625 352.769531 252.128906 351.417969 L 245.734375 350.585938 C 245.441406 352.390625 245.347656 354.199219 245.453125 356.023438 C 245.558594 357.84375 245.859375 359.632812 246.355469 361.390625 C 246.855469 363.144531 247.535156 364.828125 248.402344 366.433594 C 249.265625 368.039062 250.296875 369.535156 251.488281 370.917969 C 263.574219 385.09375 290.050781 385.972656 291.167969 386.003906 L 291.34375 379.609375 C 291.105469 379.675781 266.582031 378.765625 256.285156 366.761719 Z M 256.285156 366.761719 " fill-opacity="1" fill-rule="nonzero"/><path fill="rgb(0%, 0%, 0%)" d="M 251.488281 457.988281 C 250.304688 459.375 249.285156 460.871094 248.429688 462.480469 C 247.574219 464.089844 246.902344 465.773438 246.417969 467.527344 C 245.929688 469.285156 245.636719 471.074219 245.542969 472.890625 C 245.445312 474.710938 245.546875 476.519531 245.84375 478.316406 L 252.242188 477.488281 C 252.003906 476.132812 251.914062 474.769531 251.976562 473.398438 C 252.039062 472.027344 252.25 470.679688 252.609375 469.351562 C 252.96875 468.027344 253.46875 466.753906 254.105469 465.539062 C 254.746094 464.324219 255.507812 463.191406 256.398438 462.144531 C 266.644531 450.140625 291.167969 449.359375 291.410156 449.359375 L 291.234375 442.964844 C 290.050781 442.917969 263.574219 443.8125 251.488281 457.988281 Z M 251.488281 457.988281 " fill-opacity="1" fill-rule="nonzero"/><g clip-path="url(#clip-2)"><path fill="rgb(0%, 0%, 0%)" d="M 239.148438 413.445312 L 291.25 413.445312 L 291.25 419.839844 L 239.148438 419.839844 Z M 239.148438 413.445312 " fill-opacity="1" fill-rule="nonzero"/></g></svg>