<?xml version="1.0" encoding="UTF-8"?><svg xmlns="http://www.w3.org/2000/svg" xmlns:xlink="http://www.w3.org/1999/xlink" width="768" zoomAndPan="magnify" viewBox="0 0 768 767.999994" height="767.999994" preserveAspectRatio="xMidYMid meet" version="1.0"><defs><clipPath id="clip-0"><path d="M 285 230.402344 L 485 230.402344 L 485 537.902344 L 285 537.902344 Z M 285 230.402344 " clip-rule="nonzero"/></clipPath></defs><g clip-path="url(#clip-0)"><path fill="rgb(0%, 0%, 0%)" d="M 385.828125 230.402344 C 322.34375 230.402344 286.339844 265.992188 285.316406 317.511719 L 285.316406 320.089844 L 341.363281 320.089844 L 341.363281 317.511719 C 342.589844 294.753906 358.324219 280.074219 382.101562 280.074219 C 405.675781 280.074219 421.394531 293.710938 421.394531 312.957031 C 421.394531 332.199219 413.328125 342.136719 386.65625 358.074219 C 358.113281 374.832031 346.726562 393.460938 349.414062 426.566406 L 349.742188 435.402344 L 404.636719 435.402344 L 404.636719 426.992188 C 404.636719 407.132812 412.296875 396.972656 439.800781 381.046875 C 468.957031 363.867188 484.042969 342.148438 484.042969 311.105469 C 484.042969 263.300781 444.976562 230.402344 385.828125 230.402344 Z M 378.375 473.839844 C 357.339844 473.839844 344.214844 486.058594 344.214844 505.96875 C 344.214844 525.699219 357.351562 537.902344 378.375 537.902344 C 399.402344 537.902344 412.363281 525.699219 412.363281 505.96875 C 412.363281 486.058594 399.414062 473.839844 378.375 473.839844 Z M 378.375 473.839844 " fill-opacity="1" fill-rule="nonzero"/></g></svg>